<svg xmlns="http://www.w3.org/2000/svg" width="247" height="68">
    <path fill="#222148" fill-rule="evenodd" d="M243.737 32.513c-2.223 0-3.945.475-5.171 1.428-1.224.951-1.838 2.561-1.838 4.825v12.511h-8.38V23.795h8.38v5.171c1.046-1.676 2.394-3.005 4.043-3.989 1.65-.985 3.439-1.477 5.367-1.477v9.013h-2.401zm-38.963 6.55c.098 2.068.62 3.554 1.568 4.457.947.904 2.157 1.354 3.627 1.354 1.241 0 2.271-.312 3.087-.935.817-.625 1.356-1.428 1.619-2.413h8.871c-.36 1.936-1.146 3.669-2.353 5.195-1.209 1.528-2.745 2.726-4.607 3.596-1.862.871-3.939 1.306-6.225 1.306-2.679 0-5.056-.568-7.131-1.7-2.075-1.134-3.699-2.766-4.877-4.901-1.175-2.134-1.764-4.63-1.764-7.486 0-2.889.579-5.393 1.74-7.512 1.16-2.116 2.785-3.743 4.877-4.874 2.09-1.134 4.476-1.7 7.155-1.7 2.713 0 5.097.559 7.156 1.675 2.059 1.117 3.651 2.684 4.779 4.703 1.127 2.02 1.691 4.344 1.691 6.969 0 .689-.082 1.446-.245 2.266h-18.968zm9.288-7.608c-.997-.904-2.229-1.358-3.701-1.358-1.536 0-2.81.461-3.823 1.382-1.014.919-1.585 2.265-1.715 4.038h10.684c.032-1.806-.449-3.16-1.445-4.062zM187.89 49.923c-1.781 1.132-3.798 1.7-6.054 1.7-2.091 0-3.888-.478-5.39-1.43-1.504-.952-2.598-2.249-3.285-3.89v18.076h-8.38V23.795h8.38v4.974c.687-1.642 1.781-2.938 3.285-3.891 1.502-.951 3.299-1.428 5.39-1.428 2.256 0 4.273.566 6.054 1.7 1.78 1.131 3.185 2.758 4.215 4.874 1.028 2.119 1.544 4.623 1.544 7.512 0 2.856-.516 5.352-1.544 7.486-1.03 2.135-2.435 3.767-4.215 4.901zm-4.411-17.312c-1.095-1.183-2.542-1.773-4.338-1.773-1.765 0-3.21.601-4.337 1.798-1.128 1.197-1.691 2.832-1.691 4.9 0 2.036.563 3.662 1.691 4.876 1.127 1.215 2.572 1.821 4.337 1.821 1.796 0 3.243-.591 4.338-1.772 1.094-1.184 1.642-2.824 1.642-4.925s-.548-3.743-1.642-4.925zm-33.45 2.315c2.091.492 3.806.993 5.148 1.502 1.337.509 2.498 1.338 3.478 2.487.982 1.15 1.471 2.692 1.471 4.628 0 1.578-.426 2.973-1.275 4.188-.851 1.215-2.076 2.166-3.674 2.857-1.604.689-3.499 1.035-5.686 1.035-3.693 0-6.651-.822-8.872-2.464-2.223-1.641-3.577-3.989-4.067-7.042h8.086c.131 1.181.629 2.084 1.494 2.708.866.626 1.987.935 3.359.935.946 0 1.666-.22 2.155-.663.491-.445.735-1.028.735-1.75 0-.953-.448-1.632-1.347-2.045-.899-.408-2.361-.843-4.387-1.303-2.027-.427-3.693-.887-4.999-1.381-1.308-.491-2.434-1.287-3.382-2.387-.948-1.099-1.42-2.602-1.42-4.507 0-2.463.929-4.458 2.792-5.983 1.863-1.529 4.492-2.291 7.891-2.291 3.464 0 6.233.87 8.307 2.612 2.077 1.74 3.374 4.035 3.897 6.893h-7.841c-.229-1.115-.743-1.994-1.545-2.635-.801-.64-1.806-.96-3.014-.96-.948 0-1.665.206-2.154.616-.491.412-.737.992-.737 1.748 0 .854.45 1.495 1.348 1.921.899.427 2.312.854 4.239 1.281zm-26.564 11.377c-.719 1.641-1.831 2.938-3.332 3.89-1.504.952-3.302 1.43-5.392 1.43-2.254 0-4.271-.568-6.053-1.7-1.781-1.134-3.186-2.766-4.214-4.901-1.03-2.134-1.544-4.63-1.544-7.486 0-2.889.514-5.393 1.544-7.512 1.028-2.116 2.433-3.743 4.214-4.874 1.782-1.134 3.799-1.7 6.053-1.7 2.09 0 3.888.477 5.392 1.428 1.501.953 2.613 2.249 3.332 3.891v-4.974h8.333v27.482h-8.333v-4.974zm-1.692-13.667c-1.127-1.197-2.571-1.798-4.337-1.798-1.797 0-3.242.59-4.336 1.773-1.096 1.182-1.643 2.824-1.643 4.925s.547 3.741 1.643 4.925c1.094 1.181 2.539 1.772 4.336 1.772 1.766 0 3.21-.606 4.337-1.821 1.13-1.214 1.692-2.84 1.692-4.876 0-2.068-.562-3.703-1.692-4.9zM87.637 51.623c-3.789 0-6.795-1.077-9.018-3.227-2.221-2.15-3.331-5.246-3.331-9.284h8.282c0 3.251 1.225 4.876 3.676 4.876 2.123 0 3.186-1.248 3.186-3.742v-23.79h8.38v23.79c0 3.644-.987 6.45-2.965 8.42-1.976 1.971-4.714 2.957-8.21 2.957zM29.522 66.6c-1.556 1.562-4.078 1.562-5.634 0L1.347 43.949c-1.556-1.565-1.556-4.098 0-5.663l8.452-8.494L26.705 46.78l30.993-31.144 8.453 8.494c1.555 1.563 1.555 4.099 0 5.662L29.522 66.6zM15.434 24.13L37.975 1.478c1.556-1.564 4.081-1.564 5.635 0l8.453 8.494-25.358 25.483L15.434 24.13z"/>
</svg>
